P3
4 4
15
0  0  0    0  0  0    0  0  0   1 2 3
0  0  0    0 15  0    0  0  0    0  0  0
0  0  0    0  0  0    0 15  7    0  0  0
15  0 15    0  0  0    0  0  0    0  0  0
